<svg width="34" height="41" viewBox="0 0 34 41" fill="none" xmlns="http://www.w3.org/2000/svg">
<path d="M7 7V5.75C7.00289 4.75633 7.3989 3.80417 8.10154 3.10154C8.80417 2.3989 9.75633 2.00289 10.75 2H28.25C29.2437 2.00289 30.1958 2.3989 30.8985 3.10154C31.6011 3.80417 31.9971 4.75633 32 5.75V34.5L25.75 29.5" stroke="white" stroke-width="3" stroke-linejoin="round"/>
<path d="M22 8.25H5.75C4.75633 8.25289 3.80417 8.6489 3.10154 9.35154C2.3989 10.0542 2.00289 11.0063 2 12V39.5L13.875 29.5L25.75 39.5V12C25.7471 11.0063 25.3511 10.0542 24.6485 9.35154C23.9458 8.6489 22.9937 8.25289 22 8.25Z" stroke="white" stroke-width="3" stroke-linejoin="round"/>
</svg>
