<svg width="34" height="37" viewBox="0 0 34 37" fill="none" xmlns="http://www.w3.org/2000/svg">
<path d="M18.6673 2H19.1223C24.5553 2 27.2752 2 29.1618 3.33C29.7018 3.71 30.1818 4.16333 30.5867 4.67167C32 6.44833 32 9.005 32 14.1217V18.3633C32 23.3017 32 25.7717 31.2184 27.7433C29.9618 30.915 27.3052 33.415 23.9354 34.5983C21.8405 35.3333 19.2189 35.3333 13.9692 35.3333C10.9726 35.3333 9.4727 35.3333 8.27609 34.9133C6.35118 34.2367 4.83292 32.8083 4.11462 30.9967C3.66797 29.87 3.66797 28.4583 3.66797 25.6367V18.6667" stroke="white" stroke-width="3" stroke-linecap="round" stroke-linejoin="round"/>
<path d="M31.9986 18.6667C31.9986 20.1399 31.4134 21.5529 30.3717 22.5946C29.33 23.6364 27.9171 24.2217 26.4439 24.2217C25.3339 24.2217 24.0257 24.0283 22.9474 24.3167C22.4764 24.4433 22.047 24.6915 21.7022 25.0364C21.3573 25.3813 21.1091 25.8107 20.9825 26.2817C20.6941 27.36 20.8875 28.6683 20.8875 29.7783C20.8875 30.5078 20.7438 31.2302 20.4646 31.9041C20.1855 32.5781 19.7763 33.1905 19.2605 33.7063C18.7447 34.2221 18.1324 34.6313 17.4584 34.9105C16.7845 35.1897 16.0622 35.3333 15.3327 35.3333M15.3327 8.66667H2M8.66636 2V15.3333" stroke="white" stroke-width="3" stroke-linecap="round" stroke-linejoin="round"/>
</svg>
