<svg width="20" height="22" viewBox="0 0 20 22" fill="none" xmlns="http://www.w3.org/2000/svg">
<path fill-rule="evenodd" clip-rule="evenodd" d="M6.53125 4.125V2.0625H12.7188V4.125H6.53125ZM4.46875 4.125V1.375C4.46875 1.01033 4.61362 0.660591 4.87148 0.402728C5.12934 0.144866 5.47908 0 5.84375 0L13.4062 0C13.7709 0 14.1207 0.144866 14.3785 0.402728C14.6364 0.660591 14.7812 1.01033 14.7812 1.375V4.125H18.2188C18.4923 4.125 18.7546 4.23365 18.948 4.42705C19.1414 4.62044 19.25 4.88275 19.25 5.15625C19.25 5.42975 19.1414 5.69206 18.948 5.88545C18.7546 6.07885 18.4923 6.1875 18.2188 6.1875H17.7169L16.6953 19.4604C16.6422 20.1512 16.3304 20.7966 15.8221 21.2675C15.3137 21.7383 14.6464 22 13.9535 22H5.2965C4.60361 22 3.93627 21.7383 3.42794 21.2675C2.91961 20.7966 2.60776 20.1512 2.55475 19.4604L1.53313 6.1875H1.03125C0.757745 6.1875 0.495443 6.07885 0.302046 5.88545C0.108649 5.69206 0 5.42975 0 5.15625C0 4.88275 0.108649 4.62044 0.302046 4.42705C0.495443 4.23365 0.757745 4.125 1.03125 4.125H4.46875ZM3.6025 6.1875H15.6475L14.6382 19.3023C14.6251 19.4749 14.5473 19.6362 14.4203 19.754C14.2934 19.8718 14.1267 19.9373 13.9535 19.9375H5.2965C5.12334 19.9373 4.95663 19.8718 4.82968 19.754C4.70274 19.6362 4.62491 19.4749 4.61175 19.3023L3.6025 6.1875Z" fill="#01BD82"/>
</svg>
