<svg width="24" height="24" viewBox="0 0 24 24" fill="none" xmlns="http://www.w3.org/2000/svg">
<path fill-rule="evenodd" clip-rule="evenodd" d="M21.4549 5.41601C21.5499 5.56022 21.5922 5.7328 21.5747 5.9046C21.5573 6.0764 21.481 6.23691 21.3589 6.35901L12.1659 15.551C12.0718 15.645 11.9545 15.7123 11.8259 15.746L7.99689 16.746C7.87032 16.779 7.73732 16.7784 7.61109 16.7441C7.48485 16.7098 7.36978 16.6431 7.27729 16.5506C7.18479 16.4581 7.1181 16.3431 7.08382 16.2168C7.04955 16.0906 7.04888 15.9576 7.08189 15.831L8.08189 12.003C8.1118 11.8884 8.16679 11.7818 8.24289 11.691L17.4699 2.47001C17.6105 2.32956 17.8011 2.25067 17.9999 2.25067C18.1986 2.25067 18.3893 2.32956 18.5299 2.47001L21.3589 5.29801C21.3938 5.33485 21.4259 5.3743 21.4549 5.41601ZM19.7679 5.82801L17.9999 4.06101L9.48189 12.579L8.85689 14.972L11.2499 14.347L19.7679 5.82801Z" fill="#01BD82"/>
<path d="M19.641 17.16C19.9143 14.8239 20.0016 12.4699 19.902 10.12C19.8997 10.0646 19.9088 10.0093 19.929 9.95769C19.9491 9.90605 19.9798 9.85915 20.019 9.81998L21.003 8.83599C21.0299 8.80894 21.064 8.79024 21.1013 8.78213C21.1385 8.77402 21.1774 8.77684 21.2131 8.79025C21.2488 8.80366 21.2798 8.8271 21.3025 8.85774C21.3252 8.88838 21.3386 8.92493 21.341 8.96299C21.5257 11.7542 21.4554 14.5565 21.131 17.335C20.895 19.357 19.271 20.942 17.258 21.167C13.7633 21.5537 10.2367 21.5537 6.74201 21.167C4.73001 20.942 3.10501 19.357 2.86901 17.335C2.45512 13.7904 2.45512 10.2096 2.86901 6.66499C3.10501 4.64299 4.72901 3.05799 6.74201 2.83299C9.39446 2.54003 12.0667 2.46879 14.731 2.61999C14.7691 2.62272 14.8057 2.63633 14.8363 2.6592C14.867 2.68206 14.8904 2.71323 14.9039 2.74901C14.9173 2.78478 14.9203 2.82367 14.9123 2.86106C14.9044 2.89845 14.8859 2.93278 14.859 2.95999L13.866 3.95199C13.8272 3.99083 13.7808 4.02127 13.7297 4.0414C13.6786 4.06153 13.6239 4.07092 13.569 4.06898C11.3458 3.99284 9.11993 4.07806 6.90901 4.32399C6.26295 4.39549 5.65986 4.68271 5.19717 5.13924C4.73447 5.59576 4.43919 6.19494 4.35901 6.83999C3.95787 10.2683 3.95787 13.7317 4.35901 17.16C4.43919 17.805 4.73447 18.4042 5.19717 18.8607C5.65986 19.3173 6.26295 19.6045 6.90901 19.676C10.264 20.051 13.736 20.051 17.092 19.676C17.7381 19.6045 18.3412 19.3173 18.8039 18.8607C19.2666 18.4042 19.5608 17.805 19.641 17.16Z" fill="#01BD82"/>
</svg>
