<svg width="34" height="36" viewBox="0 0 34 36" fill="none" xmlns="http://www.w3.org/2000/svg">
<path d="M11.9996 34H8.66639C4.98464 34 2 30.6917 2 26.6109V14.987C2 12.4032 3.21763 10.007 5.21118 8.66779L13.5442 3.06997C15.6679 1.64334 18.3308 1.64334 20.4546 3.06997L28.7875 8.66779C30.7811 10.007 31.9987 12.4032 31.9987 14.987V26.6109C31.9987 30.6917 29.014 34 25.3324 34H21.9992M11.9996 34V26.6109C11.9996 23.5501 14.238 21.069 16.9994 21.069C19.7608 21.069 21.9992 23.5501 21.9992 26.6109V34M11.9996 34H21.9992" stroke="white" stroke-width="3" stroke-linecap="round" stroke-linejoin="round"/>
</svg>
