<svg width="22" height="20" viewBox="0 0 22 20" fill="none" xmlns="http://www.w3.org/2000/svg">
<path d="M19.8206 10.645L19.8205 10.645C18.9203 11.5782 18.0335 12.5198 17.1485 13.4596C15.3769 15.3409 13.6123 17.2147 11.7605 18.9981C11.321 19.414 10.6234 19.3982 10.2035 18.963L2.17898 10.645C-0.0596621 8.32448 -0.0596578 4.57239 2.17898 2.25187C4.43172 -0.0832555 8.0955 -0.0832532 10.3482 2.25187L10.3482 2.25191L10.64 2.55424C10.7342 2.65191 10.8641 2.70707 10.9998 2.70706C11.1355 2.70706 11.2654 2.65188 11.3596 2.55421L11.6511 2.25205L11.6512 2.25196C12.733 1.13001 14.2032 0.5 15.7358 0.5C17.2685 0.5 18.7386 1.12995 19.8205 2.25181L19.8206 2.25194C20.8957 3.36592 21.5 4.87466 21.5 6.44844C21.5 8.02225 20.8956 9.53108 19.8206 10.645Z" stroke="#6C6D6D" stroke-linejoin="round"/>
</svg>
