<svg width="42" height="28" viewBox="0 0 42 28" fill="none" xmlns="http://www.w3.org/2000/svg">
<path d="M2.33334 28C1.67223 28 1.11845 27.776 0.672008 27.328C0.225564 26.88 0.0015636 26.3262 8.04596e-06 25.6666C-0.00154751 25.0071 0.222453 24.4533 0.672008 24.0053C1.12156 23.5573 1.67534 23.3333 2.33334 23.3333H39.6666C40.3277 23.3333 40.8823 23.5573 41.3303 24.0053C41.7783 24.4533 42.0015 25.0071 42 25.6666C41.9984 26.3262 41.7744 26.8807 41.328 27.3303C40.8815 27.7799 40.3277 28.0031 39.6666 28H2.33334ZM2.33334 16.3333C1.67223 16.3333 1.11845 16.1093 0.672008 15.6613C0.225564 15.2133 0.0015636 14.6595 8.04596e-06 14C-0.00154751 13.3404 0.222453 12.7867 0.672008 12.3387C1.12156 11.8907 1.67534 11.6667 2.33334 11.6667H39.6666C40.3277 11.6667 40.8823 11.8907 41.3303 12.3387C41.7783 12.7867 42.0015 13.3404 42 14C41.9984 14.6595 41.7744 15.2141 41.328 15.6636C40.8815 16.1132 40.3277 16.3364 39.6666 16.3333H2.33334ZM2.33334 4.66666C1.67223 4.66666 1.11845 4.44266 0.672008 3.99466C0.225564 3.54666 0.0015636 2.99289 8.04596e-06 2.33333C-0.00154751 1.67378 0.222453 1.12 0.672008 0.671999C1.12156 0.224 1.67534 0 2.33334 0H39.6666C40.3277 0 40.8823 0.224 41.3303 0.671999C41.7783 1.12 42.0015 1.67378 42 2.33333C41.9984 2.99289 41.7744 3.54744 41.328 3.99699C40.8815 4.44655 40.3277 4.66977 39.6666 4.66666H2.33334Z" fill="white"/>
</svg>
