<svg width="30" height="37" viewBox="0 0 30 37" fill="none" xmlns="http://www.w3.org/2000/svg">
<path d="M15.0442 33.1047C11.0578 33.1047 7.07151 32.4717 3.29051 31.2056C1.85339 30.7095 0.758436 29.7001 0.279395 28.3827C-0.216755 27.0654 -0.0456687 25.6111 0.741327 24.3109L2.70882 21.0431C3.11942 20.3588 3.49581 18.9901 3.49581 18.186V13.2416C3.49581 6.87724 8.67972 1.69333 15.0442 1.69333C21.4086 1.69333 26.5925 6.87724 26.5925 13.2416V18.186C26.5925 18.973 26.9689 20.3588 27.3795 21.0602L29.3299 24.3109C30.0655 25.5427 30.2024 27.0311 29.7063 28.3827C29.2101 29.7343 28.1323 30.7608 26.7807 31.2056C23.0168 32.4717 19.0305 33.1047 15.0442 33.1047ZM15.0442 4.25962C10.0997 4.25962 6.0621 8.28014 6.0621 13.2416V18.186C6.0621 19.4349 5.54885 21.2826 4.91583 22.3605L2.94834 25.6282C2.57195 26.2613 2.4693 26.9285 2.69171 27.4931C2.89701 28.0748 3.41027 28.5196 4.11172 28.7591C11.2631 31.1543 18.8423 31.1543 25.9937 28.7591C26.6096 28.5538 27.0886 28.0919 27.311 27.476C27.5335 26.8601 27.4821 26.1928 27.14 25.6282L25.1725 22.3605C24.5223 21.2484 24.0262 19.4178 24.0262 18.1689V13.2416C24.0262 8.28014 20.0057 4.25962 15.0442 4.25962Z" fill="white"/>
<path d="M18.2259 4.72198C18.1061 4.72198 17.9864 4.70487 17.8666 4.67065C17.3705 4.53378 16.8914 4.43113 16.4295 4.3627C14.9753 4.1745 13.5724 4.27715 12.255 4.67065C11.776 4.82463 11.2627 4.67065 10.9377 4.31137C10.6126 3.95209 10.51 3.43883 10.6982 2.9769C11.3996 1.18049 13.1104 0 15.0608 0C17.0112 0 18.722 1.16339 19.4235 2.9769C19.5946 3.43883 19.509 3.95209 19.184 4.31137C18.9273 4.58511 18.5681 4.72198 18.2259 4.72198Z" fill="white"/>
<path d="M15.0435 37.0058C13.3497 37.0058 11.7073 36.3214 10.5098 35.1238C9.31215 33.9262 8.62781 32.2838 8.62781 30.5901H11.1941C11.1941 31.5995 11.6047 32.5918 12.3232 33.3103C13.0418 34.0289 14.0341 34.4395 15.0435 34.4395C17.165 34.4395 18.8929 32.7115 18.8929 30.5901H21.4592C21.4592 34.1315 18.585 37.0058 15.0435 37.0058Z" fill="white"/>
</svg>
