<svg width="18" height="5" viewBox="0 0 18 5" fill="none" xmlns="http://www.w3.org/2000/svg">
<path d="M9 4.5C9.59674 4.5 10.169 4.26295 10.591 3.84099C11.0129 3.41903 11.25 2.84674 11.25 2.25C11.25 1.65326 11.0129 1.08097 10.591 0.65901C10.169 0.237053 9.59674 0 9 0C8.40326 0 7.83097 0.237053 7.40901 0.65901C6.98705 1.08097 6.75 1.65326 6.75 2.25C6.75 2.84674 6.98705 3.41903 7.40901 3.84099C7.83097 4.26295 8.40326 4.5 9 4.5ZM2.25 4.5C2.84674 4.5 3.41903 4.26295 3.84099 3.84099C4.26295 3.41903 4.5 2.84674 4.5 2.25C4.5 1.65326 4.26295 1.08097 3.84099 0.65901C3.41903 0.237053 2.84674 0 2.25 0C1.65326 0 1.08097 0.237053 0.65901 0.65901C0.237053 1.08097 0 1.65326 0 2.25C0 2.84674 0.237053 3.41903 0.65901 3.84099C1.08097 4.26295 1.65326 4.5 2.25 4.5ZM15.75 4.5C16.3467 4.5 16.919 4.26295 17.341 3.84099C17.7629 3.41903 18 2.84674 18 2.25C18 1.65326 17.7629 1.08097 17.341 0.65901C16.919 0.237053 16.3467 0 15.75 0C15.1533 0 14.581 0.237053 14.159 0.65901C13.7371 1.08097 13.5 1.65326 13.5 2.25C13.5 2.84674 13.7371 3.41903 14.159 3.84099C14.581 4.26295 15.1533 4.5 15.75 4.5Z" fill="#6C6D6D"/>
</svg>
