<svg width="19" height="18" viewBox="0 0 19 18" fill="none" xmlns="http://www.w3.org/2000/svg">
<path d="M9.74713 14.646L9.48059 14.4776L9.21374 14.6455L4.87926 17.3733L4.87836 17.3739C4.51411 17.6042 3.95135 17.2937 4.07735 16.727C4.07736 16.7269 4.07737 16.7269 4.07738 16.7268C4.07738 16.7268 4.07739 16.7268 4.0774 16.7267L5.22625 11.5768L5.28964 11.2927L5.07379 11.0973L1.24065 7.62746L1.24048 7.62731C0.836026 7.26154 1.09772 6.62386 1.54185 6.58695L1.54185 6.58696L1.54461 6.58672L6.58931 6.13935L6.89337 6.11239L7.00833 5.82961L8.98235 0.974081L8.98311 0.972185C9.17023 0.506484 9.78988 0.506484 9.977 0.972186L9.97762 0.973717L11.9516 5.84016L12.0665 6.12328L12.3708 6.15026L17.4155 6.59763L17.4183 6.59786C17.8624 6.63477 18.1241 7.27245 17.7196 7.63822L17.7195 7.63838L13.8863 11.1082L13.6705 11.3036L13.7339 11.5877L14.8827 16.7376C14.8827 16.7377 14.8827 16.7378 14.8828 16.7379C15.0088 17.3046 14.446 17.6151 14.0817 17.3848L14.0816 17.3847L9.74713 14.646Z" stroke="#6C6D6D"/>
</svg>
