<svg width="16" height="20" viewBox="0 0 16 20" fill="none" xmlns="http://www.w3.org/2000/svg">
<path d="M2.11458 20H0.90625C0.665897 20 0.435389 19.8946 0.265434 19.7071C0.0954797 19.5196 0 19.2652 0 19V13C0 12.7348 0.0954797 12.4804 0.265434 12.2929C0.435389 12.1054 0.665897 12 0.90625 12H2.11458C2.35494 12 2.58544 12.1054 2.7554 12.2929C2.92535 12.4804 3.02083 12.7348 3.02083 13V19C3.02083 19.2652 2.92535 19.5196 2.7554 19.7071C2.58544 19.8946 2.35494 20 2.11458 20ZM10.5729 20H9.36458C9.12423 20 8.89372 19.8946 8.72377 19.7071C8.55381 19.5196 8.45833 19.2652 8.45833 19V9C8.45833 8.73478 8.55381 8.48043 8.72377 8.29289C8.89372 8.10536 9.12423 8 9.36458 8H10.5729C10.8133 8 11.0438 8.10536 11.2137 8.29289C11.3837 8.48043 11.4792 8.73478 11.4792 9V19C11.4792 19.2652 11.3837 19.5196 11.2137 19.7071C11.0438 19.8946 10.8133 20 10.5729 20ZM14.8021 20H13.5937C13.3534 20 13.1229 19.8946 12.9529 19.7071C12.783 19.5196 12.6875 19.2652 12.6875 19V4.33333C12.6875 4.06812 12.783 3.81376 12.9529 3.62623C13.1229 3.43869 13.3534 3.33333 13.5937 3.33333H14.8021C15.0424 3.33333 15.2729 3.43869 15.4429 3.62623C15.6129 3.81376 15.7083 4.06812 15.7083 4.33333V19C15.7083 19.2652 15.6129 19.5196 15.4429 19.7071C15.2729 19.8946 15.0424 20 14.8021 20ZM6.34375 20H5.13542C4.89506 20 4.66456 19.8946 4.4946 19.7071C4.32465 19.5196 4.22917 19.2652 4.22917 19V1C4.22917 0.734784 4.32465 0.48043 4.4946 0.292893C4.66456 0.105357 4.89506 0 5.13542 0H6.34375C6.5841 0 6.81461 0.105357 6.98457 0.292893C7.15452 0.48043 7.25 0.734784 7.25 1V19C7.25 19.2652 7.15452 19.5196 6.98457 19.7071C6.81461 19.8946 6.5841 20 6.34375 20Z" fill="#6C6D6D"/>
</svg>
