<svg id="Layer_1" data-name="Layer 1" xmlns="http://www.w3.org/2000/svg" xmlns:xlink="http://www.w3.org/1999/xlink" viewBox="0 0 345.288 90.957"><defs><style>.cls-1{fill:url(#linear-gradient);}.cls-2{fill:url(#linear-gradient-2);}.cls-3{fill:url(#linear-gradient-3);}.cls-4{fill:url(#linear-gradient-4);}.cls-5{fill:url(#linear-gradient-5);}.cls-6{fill:url(#linear-gradient-6);}.cls-7{stroke-miterlimit:10;stroke-width:0.8px;fill:url(#linear-gradient-7);stroke:url(#radial-gradient);}</style><linearGradient id="linear-gradient" x1="661.309" y1="168.617" x2="509.816" y2="561.597" gradientUnits="userSpaceOnUse"><stop offset="0" stop-color="#fff"/><stop offset="1" stop-color="#55d173"/></linearGradient><linearGradient id="linear-gradient-2" x1="722.322" y1="192.137" x2="570.83" y2="585.117" xlink:href="#linear-gradient"/><linearGradient id="linear-gradient-3" x1="763.769" y1="208.115" x2="612.277" y2="601.095" xlink:href="#linear-gradient"/><linearGradient id="linear-gradient-4" x1="783.278" y1="215.635" x2="631.785" y2="608.616" xlink:href="#linear-gradient"/><linearGradient id="linear-gradient-5" x1="332.746" y1="-132.515" x2="181.254" y2="260.466" xlink:href="#linear-gradient"/><linearGradient id="linear-gradient-6" x1="847.135" y1="240.252" x2="695.643" y2="633.232" xlink:href="#linear-gradient"/><linearGradient id="linear-gradient-7" x1="446.166" y1="439.409" x2="571.292" y2="355.506" gradientUnits="userSpaceOnUse"><stop offset="0" stop-color="#01bd82"/><stop offset="1" stop-color="#55d173"/></linearGradient><radialGradient id="radial-gradient" cx="499.684" cy="403.539" r="36.928" gradientUnits="userSpaceOnUse"><stop offset="0" stop-color="#01ccc0"/><stop offset="1" stop-color="#55d173"/></radialGradient></defs><title>full_logo</title><path class="cls-1" d="M535.511,413.679c0-17.159,12.479-31.319,30.839-31.319,18.839,0,29.758,13.919,29.758,30.119v0.788a4.252,4.252,0,0,1-4.252,4.252H551.949c1.2,7.919,7.32,13.2,15.84,13.2a16.02,16.02,0,0,0,12.836-5.814,4.227,4.227,0,0,1,5.2-1.11l5.668,2.86a4.268,4.268,0,0,1,1.58,6.231c-5.532,8.065-14.327,12.593-25.166,12.593C549.43,445.478,535.511,432.639,535.511,413.679Zm43.678-5.64c-0.72-6.12-5.76-10.8-12.959-10.8-7.44,0-12.36,4.8-13.56,10.8h26.519Z" transform="translate(-467.06 -354.522)"/><path class="cls-2" d="M605.591,413.679c0-17.159,12.479-31.319,30.839-31.319,18.839,0,29.758,13.919,29.758,30.119v0.788a4.252,4.252,0,0,1-4.252,4.252H622.03c1.2,7.919,7.32,13.2,15.84,13.2a16.02,16.02,0,0,0,12.836-5.814,4.227,4.227,0,0,1,5.2-1.11l5.668,2.86a4.268,4.268,0,0,1,1.58,6.231c-5.532,8.065-14.327,12.593-25.166,12.593C619.51,445.478,605.591,432.639,605.591,413.679Zm43.678-5.64c-0.72-6.12-5.76-10.8-12.959-10.8-7.44,0-12.36,4.8-13.559,10.8h26.518Z" transform="translate(-467.06 -354.522)"/><path class="cls-3" d="M698.11,365.681V435.4a8.52,8.52,0,0,1-8.52,8.52h0a8.52,8.52,0,0,1-8.52-8.52V365.681a8.52,8.52,0,0,1,8.52-8.52h0A8.52,8.52,0,0,1,698.11,365.681Z" transform="translate(-467.06 -354.522)"/><path class="cls-4" d="M715.15,365.081a10.5,10.5,0,1,1,21,0A10.5,10.5,0,1,1,715.15,365.081Z" transform="translate(-467.06 -354.522)"/><rect class="cls-5" x="250.129" y="29.999" width="17.039" height="59.397" rx="8.52" ry="8.52"/><path class="cls-6" d="M747.91,414.039c0-17.159,14.039-31.318,32.158-31.318,18.359,0,32.279,14.279,32.279,31.318,0,17.279-14.04,31.439-32.279,31.439S747.91,431.319,747.91,414.039Zm47.4,0.12a15.18,15.18,0,1,0-15.239,15.359A15.135,15.135,0,0,0,795.308,414.159Z" transform="translate(-467.06 -354.522)"/><path class="cls-7" d="M531.666,443.919h-18.96l-7.2-14.4c-2.951-5.9-5.752-9.615-11.338-10.9a22.266,22.266,0,0,0-4.982-.5l-6.087-15.6h12.927c8.28,0,14.28-4.32,14.28-11.88,0-7.92-6.12-11.28-14.04-11.28h-22.1l-6.51-16.2h28.374c18.24,0,32.28,8.52,32.28,25.68,0,11.04-6.48,19.56-16.8,22.32,5.16,2.88,8.16,8.4,12.36,16.8Z" transform="translate(-467.06 -354.522)"/></svg>