<svg id="Layer_1" data-name="Layer 1" xmlns="http://www.w3.org/2000/svg" xmlns:xlink="http://www.w3.org/1999/xlink" viewBox="0 0 65.247 81.56"><defs><style>.cls-1{stroke-miterlimit:10;stroke-width:0.8px;fill:url(#linear-gradient);stroke:url(#radial-gradient);}</style><linearGradient id="linear-gradient" x1="446.166" y1="439.409" x2="571.292" y2="355.506" gradientUnits="userSpaceOnUse"><stop offset="0" stop-color="#01bd82"/><stop offset="1" stop-color="#55d173"/></linearGradient><radialGradient id="radial-gradient" cx="499.684" cy="403.539" r="36.928" gradientUnits="userSpaceOnUse"><stop offset="0" stop-color="#01ccc0"/><stop offset="1" stop-color="#55d173"/></radialGradient></defs><title>new</title><path class="cls-1" d="M531.666,443.919h-18.96l-7.2-14.4c-2.951-5.9-5.752-9.615-11.338-10.9a22.266,22.266,0,0,0-4.982-.5l-6.087-15.6h12.927c8.28,0,14.28-4.32,14.28-11.88,0-7.92-6.12-11.28-14.04-11.28h-22.1l-6.51-16.2h28.374c18.24,0,32.28,8.52,32.28,25.68,0,11.04-6.48,19.56-16.8,22.32,5.16,2.88,8.16,8.4,12.36,16.8Z" transform="translate(-467.06 -362.759)"/></svg>